<svg xmlns="http://www.w3.org/2000/svg" version="1.1" xmlns:xlink="http://www.w3.org/1999/xlink" xmlns:svgjs="http://svgjs.com/svgjs" width="512" height="512"><svg width="512" height="512" viewBox="0 0 512 512" fill="none" xmlns="http://www.w3.org/2000/svg">
<rect width="512" height="512" rx="100" fill="#3E3D42"></rect>
<g clip-path="url(#clip0_2_9)">
<path d="M256 98.5C154.495 98.5 72.25 180.769 72.25 282.25C72.2315 321.904 85.1165 360.487 108.959 392.172L76.0645 425.058C74.8454 426.277 73.8783 427.724 73.2185 429.317C72.5588 430.909 72.2192 432.616 72.2192 434.34C72.2192 436.064 72.5588 437.771 73.2185 439.363C73.8783 440.956 74.8454 442.403 76.0645 443.622L94.6281 462.177C97.0893 464.637 100.426 466.019 103.906 466.019C107.385 466.019 110.722 464.637 113.184 462.177L146.078 429.266C177.762 453.115 216.343 466.013 256 466.013C295.657 466.013 334.238 453.115 365.922 429.266L398.816 462.153C400.035 463.372 401.482 464.339 403.075 464.999C404.667 465.658 406.374 465.998 408.098 465.998C409.822 465.998 411.529 465.658 413.122 464.999C414.714 464.339 416.161 463.372 417.38 462.153L435.936 443.597C437.155 442.378 438.122 440.931 438.781 439.339C439.441 437.746 439.781 436.039 439.781 434.315C439.781 432.592 439.441 430.885 438.781 429.292C438.122 427.699 437.155 426.252 435.936 425.034L403.008 392.172C426.862 360.491 439.758 321.907 439.75 282.25C439.75 180.769 357.473 98.5 256 98.5ZM256 426.625C227.445 426.625 199.532 418.158 175.79 402.293C152.047 386.429 133.542 363.881 122.615 337.5C111.687 311.119 108.828 282.09 114.399 254.084C119.97 226.078 133.72 200.353 153.911 180.161C174.103 159.97 199.828 146.22 227.834 140.649C255.84 135.078 284.869 137.937 311.25 148.865C337.631 159.792 360.179 178.297 376.043 202.04C391.908 225.782 400.375 253.695 400.375 282.25C400.375 320.541 385.164 357.263 358.089 384.339C331.013 411.414 294.291 426.625 256 426.625ZM124.75 46C103.864 46 83.8338 54.2969 69.0653 69.0653C54.2969 83.8338 46 103.864 46 124.75C46.0607 139.681 50.4177 154.278 58.5508 166.799L178.234 67.0656C163.714 53.5294 144.601 46.0017 124.75 46ZM387.25 46C367.407 46.0038 348.302 53.525 333.782 67.0492L453.457 166.775C461.581 154.259 465.935 139.671 466 124.75C466 103.864 457.703 83.8338 442.935 69.0653C428.166 54.2969 408.136 46 387.25 46Z" fill="#AAAAAA"></path>
<path d="M278.84 199.597C291.575 199.597 301.907 189.264 301.907 176.529C301.907 163.793 291.575 153.461 278.84 153.461C266.104 153.461 255.772 163.793 255.772 176.529C255.772 189.264 266.104 199.597 278.84 199.597ZM324.254 271.251L313.057 265.581L308.395 251.451C301.331 230.018 281.627 215.023 259.28 214.975C241.979 214.927 232.415 219.829 214.442 227.086C204.061 231.267 195.555 239.197 190.557 249.289L187.337 255.825C183.588 263.418 186.616 272.645 194.161 276.442C201.658 280.238 210.789 277.163 214.586 269.569L217.806 263.034C219.488 259.669 222.275 257.026 225.735 255.633L238.615 250.442L231.31 279.614C228.811 289.61 231.502 300.231 238.471 307.872L267.258 339.302C270.718 343.098 273.169 347.664 274.418 352.614L283.213 387.841C285.279 396.058 293.641 401.105 301.859 399.038C310.077 396.972 315.123 388.609 313.057 380.391L302.388 337.62C301.139 332.67 298.688 328.056 295.227 324.308L273.361 300.423L281.627 267.407L284.27 275.336C286.817 283.074 292.296 289.465 299.505 293.118L310.702 298.789C318.199 302.585 327.33 299.51 331.127 291.916C334.827 284.371 331.8 275.048 324.254 271.251V271.251ZM214.249 338.869C212.712 342.762 210.405 346.27 207.425 349.202L183.396 373.279C177.389 379.286 177.389 389.042 183.396 395.049C189.403 401.056 199.111 401.056 205.118 395.049L233.665 366.503C236.596 363.571 238.903 360.063 240.489 356.17L246.977 339.927C220.401 310.947 228.378 319.838 224.197 314.119L214.249 338.869V338.869Z" fill="#2979FF"></path>
</g>
<defs>
<clipPath id="SvgjsClipPath1000">
<rect width="420" height="420" fill="white" transform="translate(46 46)"></rect>
</clipPath>
</defs>
</svg><style>@media (prefers-color-scheme: light) { :root { filter: none; } }
</style></svg>