<?xml version="1.0" standalone="no"?>
<!DOCTYPE svg PUBLIC "-//W3C//DTD SVG 20010904//EN"
 "http://www.w3.org/TR/2001/REC-SVG-20010904/DTD/svg10.dtd">
<svg version="1.0" xmlns="http://www.w3.org/2000/svg"
 width="700.000000pt" height="700.000000pt" viewBox="0 0 700.000000 700.000000"
 preserveAspectRatio="xMidYMid meet">
<metadata>
Created by potrace 1.14, written by Peter Selinger 2001-2017
</metadata>
<g transform="translate(0.000000,700.000000) scale(0.100000,-0.100000)"
fill="#000000" stroke="none">
<path d="M1194 6990 c-621 -82 -1106 -571 -1184 -1192 -14 -114 -14 -4482 0
-4596 39 -307 175 -586 391 -800 185 -184 401 -304 666 -370 l108 -27 2255 -3
c1472 -2 2288 1 2350 7 438 47 821 299 1044 686 58 102 118 261 148 395 l23
105 0 2305 0 2305 -23 105 c-62 276 -186 504 -381 696 -186 185 -392 296 -676
366 l-90 22 -2285 2 c-1257 1 -2312 -2 -2346 -6z m726 -645 c154 -32 298 -98
429 -195 81 -60 83 -62 65 -80 -11 -10 -376 -316 -813 -680 -646 -537 -797
-659 -807 -648 -26 27 -94 177 -118 260 -105 363 -10 752 251 1029 177 187
411 301 683 333 60 7 239 -4 310 -19z m3589 0 c383 -82 686 -352 804 -720 65
-203 71 -390 17 -599 -19 -77 -108 -277 -127 -289 -7 -5 -1547 1265 -1622
1338 -11 11 0 23 70 75 166 123 320 183 554 214 52 7 235 -4 304 -19z m-1661
-720 c268 -39 511 -114 747 -230 256 -126 438 -252 639 -445 416 -401 668
-894 752 -1475 21 -146 24 -482 5 -630 -49 -382 -194 -775 -401 -1084 l-82
-123 240 -242 c260 -262 270 -276 257 -364 -6 -44 -16 -57 -163 -206 -190
-192 -223 -211 -317 -185 -33 9 -84 55 -281 251 l-242 240 -124 -82 c-144 -96
-398 -223 -548 -275 -528 -182 -1084 -188 -1605 -18 -201 65 -420 172 -605
294 l-122 81 -242 -240 c-211 -210 -247 -242 -286 -252 -86 -24 -116 -8 -280
153 -169 165 -187 188 -196 243 -13 83 0 101 258 360 l240 242 -82 123 c-207
309 -352 702 -401 1084 -19 147 -16 484 5 630 67 462 239 867 524 1230 82 105
334 350 443 432 358 268 791 445 1209 492 52 6 111 13 130 15 73 9 429 -4 528
-19z"/>
<path d="M3300 5109 c-356 -37 -722 -183 -1015 -408 -85 -65 -247 -223 -318
-311 -228 -282 -378 -629 -428 -990 -17 -122 -17 -397 0 -520 89 -652 498
-1221 1086 -1510 470 -231 996 -268 1490 -105 454 149 833 450 1077 855 431
715 368 1617 -159 2270 -71 88 -233 246 -318 311 -407 311 -919 459 -1415 408z"/>
</g>
</svg>
